<?xml version="1.0" encoding="UTF-8"?>
<svg id="Layer_1" data-name="Layer 1" xmlns="http://www.w3.org/2000/svg" viewBox="0 0 190 150">
  <defs>
    <style>
      .cls-1 {
        fill: #d66e27;
      }

      .cls-1, .cls-2, .cls-3 {
        fill-rule: evenodd;
      }

      .cls-2, .cls-4 {
        fill: #770d29;
      }

      .cls-4 {
        font-family: PlayfairDisplay-Medium, 'Playfair Display';
        font-size: 20.48px;
        font-weight: 500;
      }

      .cls-3 {
        fill: #cd3231;
      }

      .cls-5 {
        letter-spacing: -.02em;
      }

      .cls-6 {
        letter-spacing: 0em;
      }

      .cls-7 {
        letter-spacing: 0em;
      }

      .cls-8 {
        letter-spacing: -.05em;
      }
    </style>
  </defs>
  <g>
    <path class="cls-1" d="M95.37,41.85c-7.07-1.03-10.7-5.47-8.11-9.93,2.59-4.46,10.42-7.24,17.49-6.22,7.07,1.02,10.7,5.47,8.11,9.93-2.59,4.46-10.42,7.24-17.49,6.22"/>
    <path class="cls-3" d="M63.6,40.49c3.54-12.91,20.15-19.92,32.44-21.03,9.6-.87,22.12.93,24.56,8.71,2.11,6.73-5.12,13.42-16.33,14.27,2.2-.35,4.45-1.27,6.34-2.41,2.35-1.42,4.31-3.22,5.1-5.35,5.62-15.1-27.05-15.37-38.09-2.08-8.63,10.38,1.43,19.58,12.49,21.94,13.85,2.96,30.03-3.37,37.1-14.4-.82,40.32-72.77,33.73-63.61.33"/>
  </g>
  <path class="cls-2" d="M28.12,80.07c-1.71-2.66-4.11-3.99-7.18-3.99-2.67,0-4.76,1.04-6.28,3.13-1.52,2.08-2.28,4.96-2.28,8.62,0,5.08,2.01,11.7,8.28,11.7,3.4,0,5.74-2.05,7.9-4.32l-.57,2.82c-2.19,2.22-4.84,3.33-7.95,3.33-7.36,0-11.89-6.08-11.89-12.95,0-3.94,1.16-7.25,3.47-9.92,2.32-2.67,5.22-4.01,8.71-4.01,2.29,0,4.4.7,6.71.7l1.09-.14v5.02ZM92.82,82.22l1.09-1.08c1.56-1.44,3.44-2.16,5.64-2.16,2.51,0,4.57.95,6.18,2.86,4.35,5.15,2.63,15.19-3.18,18.42-2.05,1.14-6.94,2.15-9.05-1.16.62.61,1.45,1.08,2.5,1.12,8,.36,10.94-10.67,6.7-16.57-1.16-1.61-2.67-2.42-4.54-2.42-3.55,0-5.33,2.22-5.33,6.66,0,3.52.03,7.06.03,10.6,0,3.3-3.1,3.12-5.5,2.59,1.16-.02,1.91-.55,1.91-2.37l.07-25.93c0-.45-.06-1.2-.74-1.6h3.02c.72-.03,1.24.45,1.21,1.26,0,3.49,0,6.29-.01,9.76ZM161.27,75.81l.48-2.13.1-.93h2.41c-.16.76-.31,1.38-.47,1.85-.08.25-.17.49-.27.71-.18.42-.41.86-.69,1.34-.38.64-.79,1.21-1.23,1.71l-1.89,1.76.9-2.22c.24-.61.46-1.31.66-2.09ZM126.88,80.72c0-.45-.06-1.2-.74-1.6h3.02c.72-.03,1.24.45,1.22,1.26l.03,18.42c0,1.82.92,2.3,2.09,2.32-2.4.53-5.55.71-5.56-2.59l-.05-17.81ZM142.6,80.3c.48.37,1.03,1.09,1.67,2.16,2.55-3.46,8.74-5.46,12.39-2.42,3.22,2.69,2.22,8.04,2.23,11.77l.02,6.93c0,1.82.9,2.36,2.07,2.38-2.4.53-5.69.71-5.66-2.59l.08-10.75c.02-2.07.08-4.02-1.16-5.74-3.32-3.93-9.69.12-9.69,4.36s-.01,8.26.05,12.41c.02,1.82.9,2.3,2.07,2.32-2.4.53-5.67.71-5.66-2.59.01-4.86.03-8.94.04-13.8.02-4.99-8.29-4.84-10.27-1.04,1.02-5.03,7.74-7.1,11.81-3.4ZM63.53,72.61c0-.45-.06-1.2-.74-1.6h3.02c.72-.03,1.24.45,1.21,1.26.01,9.06-.05,17.43-.02,26.5,0,1.82.9,2.3,2.07,2.32-2.4.53-5.5.71-5.5-2.59v-9.01s.01-.02.01-.02v-3.45c0-1.88-.32-3.19-.95-3.94-.57-.81-1.59-1.22-3.05-1.22-2.47,0-4.46.91-5.97,2.72-2.86,3.44-3.16,9.91-.48,13.53,1.37,1.86,3.76,2.74,5.9,2.32,1.72-.33,3.07-1.49,3.8-3.03-.65,3.43-3.44,5.38-7.46,4.87-8.7-1.1-9.93-13.25-4.29-18.61,3.5-3.33,7.97-3.27,12.46-3.27l-.02-6.8ZM42.54,88.52c-1.94.96-4,2.18-5.85,3.29-1.54.92-2.9,2.18-2.9,3.92s1.24,2.8,2.77,3.15c2.21.51,4.74-.41,5.59-2.63-.97,3.5-3.47,5.55-7.14,5.1-2.65-.32-5.02-2.18-5.02-5.01s2.22-4.19,4.54-5.45l8.02-4.34v-2.4c0-2.2-.79-3.75-3.22-3.75-3.52,0-5.47,2.62-7.29,5.25l-.05-4.74c2.42-1.28,4.81-2.11,7.61-2.11,3.85,0,6.32,1.3,6.33,5.39.01,4.8-.01,9.83.05,14.63.02,1.82.9,2.3,2.07,2.32-2.4.53-5.5.71-5.5-2.59v-10.03ZM81.05,88.51c-1.94.96-4,2.18-5.85,3.29-1.53.92-2.9,2.18-2.9,3.92s1.24,2.79,2.77,3.15c2.21.51,4.74-.41,5.59-2.63-.97,3.5-3.47,5.55-7.14,5.1-2.65-.32-5.02-2.18-5.02-5.01s2.22-4.19,4.54-5.45l8.02-4.34v-2.4c0-2.2-.79-3.75-3.22-3.75-3.52,0-5.47,2.62-7.29,5.25l-.05-4.74c2.42-1.28,4.81-2.11,7.61-2.11,3.85,0,6.32,1.3,6.33,5.39.01,4.8-.01,9.83.05,14.63.02,1.82.9,2.3,2.07,2.32-2.4.53-5.5.71-5.5-2.59v-10.03ZM120.97,88.51c-1.94.96-4,2.18-5.85,3.29-1.54.92-2.9,2.18-2.9,3.92s1.24,2.79,2.77,3.15c2.21.51,4.74-.41,5.59-2.63-.97,3.5-3.47,5.55-7.14,5.1-2.65-.32-5.02-2.18-5.02-5.01s2.22-4.19,4.54-5.45l8.02-4.34v-2.4c0-2.2-.79-3.75-3.22-3.75-3.52,0-5.47,2.62-7.3,5.25l-.05-4.74c2.42-1.28,4.81-2.11,7.61-2.11,3.85,0,6.32,1.3,6.33,5.39,0,4.8-.01,9.83.05,14.63.02,1.82.9,2.3,2.07,2.32-2.4.53-5.5.71-5.5-2.59v-10.03ZM178.69,95.81h0c-.79,0-1.51.32-2.03.84-.52.52-.84,1.24-.84,2.03h0s0,0,0,0c0,.79.32,1.51.84,2.03.52.52,1.24.84,2.03.84h0s0,0,0,0h0c.79,0,1.51-.32,2.03-.84.52-.52.84-1.24.84-2.04h0s0,0,0,0c0-.79-.32-1.51-.84-2.03-.52-.52-1.24-.84-2.03-.84ZM178.69,100.23v-3.08h.45l.54,2.18.11.46c.03-.11.07-.28.12-.49l.55-2.14h.4v3.08h-.29v-2.58l-.66,2.58h-.27l-.66-2.62v2.62h-.29ZM177.34,100.23v-2.72h-.75v-.36h1.8v.36h-.75v2.72h-.3ZM178.68,95.51h0c.88,0,1.67.36,2.25.93s.93,1.37.93,2.25h0s0,0,0,0c0,.88-.36,1.67-.93,2.25-.57.57-1.37.93-2.25.93h0c-.88,0-1.67-.36-2.25-.93-.57-.57-.93-1.37-.93-2.25h0s0,0,0,0c0-.88.36-1.67.93-2.25.58-.57,1.37-.93,2.25-.93h0ZM161.69,94.8c1.02,1.81,2,3.09,2.95,3.82.95.74,2.03,1.1,3.24,1.1,2.29,0,3.9-1.46,3.9-3.75,0-2.97-2.65-3.96-4.95-5.21-2.5-1.28-4.9-3.28-4.9-6.29,0-2.13,1.07-3.65,2.6-4.61,2.94-1.83,6.65-1.4,9.77-.32v4.17c-1.31-2.9-4.98-4.98-7.73-2.6-1.75,1.52-1.4,3.91.26,5.32,3.3,2.09,8.52,3.63,8.52,8.21,0,3.04-1.92,5.49-4.81,6.4-2.88.9-6.2.08-8.85-1.31v-4.95Z"/>
  <text class="cls-4" transform="translate(39.82 125.78)"><tspan class="cls-7" x="0" y="0">H</tspan><tspan x="15.63" y="0">OS</tspan><tspan class="cls-6" x="42.52" y="0">P</tspan><tspan x="54.85" y="0">I</tspan><tspan class="cls-8" x="62.04" y="0">T</tspan><tspan class="cls-5" x="74.05" y="0">A</tspan><tspan x="86.79" y="0">LS</tspan></text>
</svg>