<?xml version="1.0" encoding="UTF-8"?>
<svg id="Layer_1" data-name="Layer 1" xmlns="http://www.w3.org/2000/svg" xmlns:xlink="http://www.w3.org/1999/xlink" viewBox="0 0 190 150">
  <defs>
    <style>
      .cls-1 {
        fill: #181818;
      }

      .cls-2 {
        fill: #fff;
      }

      .cls-3 {
        fill: none;
      }

      .cls-4 {
        fill: #e01033;
      }

      .cls-5 {
        clip-path: url(#clippath);
      }

      .cls-6 {
        fill: #f79825;
      }
    </style>
    <clipPath id="clippath">
      <rect class="cls-3" x="11.82" y="50.45" width="166.36" height="49.1"/>
    </clipPath>
  </defs>
  <g class="cls-5">
    <g>
      <path class="cls-6" d="M47.63,50.45c-2.84,0-5.14,2.3-5.14,5.14s2.3,5.14,5.14,5.14,5.14-2.3,5.14-5.14-2.3-5.14-5.14-5.14Z"/>
      <path class="cls-4" d="M42.93,71.18c-.34.2-.7.29-1.07.29-.74,0-1.46-.38-1.86-1.07-.59-1.03-.23-2.33.79-2.92l3.42-1.96c.06-.04.12-.07.18-.09-3.88-7.62-11.79-12.83-20.92-12.83-4.24,0-8.22,1.13-11.65,3.1v28.37l5.27-3.02,5.95-22.97c.1-.78.62-1.49,1.43-1.76,1.12-.38,2.33.21,2.72,1.33l5.07,14.7,2.13-1.22c1.03-.59,2.33-.23,2.93.8.59,1.03.23,2.33-.79,2.92l-2.84,1.64,2.81,8.18c.38,1.12-.21,2.33-1.33,2.72-.23.08-.47.12-.7.12-.89,0-1.72-.56-2.03-1.45l-2.55-7.4-9.11,5.21-3.83,14.78c2.07.6,4.26.92,6.52.92,12.97,0,23.48-10.51,23.48-23.47,0-2.31-.34-4.55-.96-6.66l-3.06,1.76Z"/>
      <path class="cls-2" d="M36.38,92.92c-1.17,0-2.12-.95-2.12-2.12s.95-2.12,2.12-2.12,2.11.95,2.11,2.12-.95,2.12-2.11,2.12Z"/>
      <path class="cls-4" d="M22.28,78.05l6.19-3.55-3.01-8.73-3.18,12.28Z"/>
      <path class="cls-4" d="M11.82,96.46c.37.21.74.41,1.11.6l2.66-10.24-3.77,2.16v7.47Z"/>
      <path class="cls-1" d="M73.24,67.55c0,1.39-.22,2.59-.65,3.61-.43,1.02-1.04,1.88-1.83,2.56-.8.68-1.75,1.19-2.86,1.52-1.12.33-2.35.5-3.71.5-.65,0-1.37-.03-2.19-.08-.82-.05-1.59-.17-2.33-.34v-15.53c.74-.17,1.52-.28,2.36-.32.83-.05,1.57-.07,2.21-.07,1.34,0,2.56.16,3.67.47,1.11.32,2.06.81,2.85,1.48.8.67,1.4,1.52,1.83,2.54.43,1.03.65,2.24.65,3.66ZM62.57,73.16c.17.01.39.03.67.04.28,0,.65.02,1.13.02,1.95,0,3.41-.5,4.38-1.49.96-.99,1.44-2.38,1.44-4.16s-.47-3.2-1.41-4.18c-.94-.97-2.39-1.46-4.36-1.46-.86,0-1.48.02-1.85.07v11.17Z"/>
      <path class="cls-1" d="M78.27,59.96c0,.53-.17.94-.51,1.25-.34.31-.74.46-1.2.46s-.89-.15-1.22-.46c-.34-.31-.51-.72-.51-1.25s.17-.96.51-1.27c.34-.31.74-.46,1.22-.46s.86.16,1.2.46c.35.31.51.73.51,1.27ZM76.58,75.56c-.77,0-1.4-.62-1.4-1.4v-9.28c0-.77.62-1.4,1.4-1.4s1.4.62,1.4,1.4v9.28c0,.77-.62,1.4-1.4,1.4Z"/>
      <path class="cls-1" d="M90.37,74.34c0,1.92-.49,3.33-1.46,4.23-.98.89-2.48,1.34-4.49,1.34-.74,0-1.46-.06-2.16-.19-.26-.04-.52-.1-.77-.16-.64-.15-1.04-.77-.91-1.41.14-.66.8-1.07,1.46-.91.14.04.29.07.44.1.61.12,1.27.19,1.97.19,1.13,0,1.92-.23,2.4-.69.48-.46.71-1.15.71-2.06v-.46c-.28.14-.65.28-1.1.41-.46.14-.98.21-1.56.21-.77,0-1.47-.12-2.11-.37-.64-.25-1.19-.61-1.64-1.08-.45-.48-.81-1.07-1.07-1.79-.26-.71-.38-1.55-.38-2.48,0-.88.14-1.68.41-2.42.27-.74.66-1.37,1.18-1.89.52-.53,1.14-.93,1.88-1.22.74-.29,1.58-.44,2.51-.44s1.77.07,2.58.21c.82.14,1.51.29,2.08.44v10.45ZM82.6,69.21c0,1.19.26,2.05.77,2.6.52.55,1.18.82,2,.82.45,0,.86-.06,1.26-.19.39-.12.71-.27.96-.44v-6.25c-.2-.05-.45-.09-.74-.13-.29-.04-.66-.06-1.11-.06-1.01,0-1.79.34-2.33,1.01-.53.67-.8,1.55-.8,2.64Z"/>
      <path class="cls-1" d="M95.92,59.96c0,.53-.17.94-.51,1.25-.34.31-.74.46-1.2.46s-.89-.15-1.22-.46c-.34-.31-.51-.72-.51-1.25s.17-.96.51-1.27c.34-.31.74-.46,1.22-.46s.86.16,1.2.46c.35.31.51.73.51,1.27ZM94.22,75.56c-.77,0-1.4-.62-1.4-1.4v-9.28c0-.77.62-1.4,1.4-1.4s1.4.62,1.4,1.4v9.28c0,.77-.62,1.4-1.4,1.4Z"/>
      <path class="cls-1" d="M99.26,59.9c.79-.03,1.45.6,1.45,1.4v2.2h4.29v2.33h-4.29v4.92c0,.97.15,1.66.46,2.08.31.41.83.62,1.57.62.51,0,.96-.05,1.35-.16.39-.11.71-.21.93-.3l.46,2.21c-.32.14-.74.29-1.27.43-.53.15-1.14.22-1.85.22-.86,0-1.58-.11-2.16-.35-.58-.23-1.04-.56-1.37-1.01-.34-.44-.58-.97-.71-1.59-.14-.62-.21-1.34-.21-2.13v-9.48c.01-.75.61-1.37,1.36-1.4Z"/>
      <path class="cls-1" d="M111.25,63.18c.92,0,1.7.11,2.33.35.63.23,1.13.56,1.51.97.38.41.65.92.81,1.51.17.59.24,1.25.24,1.95v7.32c-.43.09-1.08.2-1.95.34-.87.13-1.85.2-2.94.2-.72,0-1.38-.07-1.98-.21-.6-.14-1.11-.36-1.53-.67-.42-.31-.76-.71-.99-1.2-.24-.5-.36-1.1-.36-1.82s.13-1.28.4-1.76c.27-.48.64-.86,1.1-1.16.47-.3,1-.52,1.61-.65.61-.13,1.25-.2,1.91-.2.31,0,.63.02.97.06.34.04.7.11,1.09.2v-.47c0-.32-.04-.63-.11-.92s-.21-.55-.41-.77c-.19-.23-.45-.4-.77-.52-.32-.12-.71-.18-1.19-.18-.65,0-1.24.05-1.78.14-.06,0-.12.02-.17.03-.63.12-1.23-.32-1.33-.95-.09-.6.3-1.16.89-1.29.16-.03.32-.07.5-.1.65-.11,1.37-.18,2.15-.18ZM111.48,73.59c.86,0,1.52-.04,1.96-.14v-3.09c-.15-.05-.38-.09-.67-.14-.29-.04-.62-.07-.97-.07-.31,0-.62.02-.93.07-.31.05-.6.13-.86.26-.25.12-.46.29-.62.52s-.23.5-.23.84c0,.66.21,1.12.62,1.37.42.25.97.38,1.69.38Z"/>
      <path class="cls-1" d="M122.8,74.82c-.1.57-.62.97-1.2.9-.39-.05-.73-.11-1.03-.21-.55-.17-.98-.41-1.31-.73-.32-.32-.55-.71-.68-1.18-.13-.47-.19-1.01-.19-1.61v-13.23c0-.36.29-.66.66-.66h1.48c.36,0,.66.29.66.66v12.71c0,.34.03.62.08.86s.15.43.28.59c.13.16.32.29.56.37h0c.51.18.82.71.73,1.24l-.05.3Z"/>
      <path class="cls-1" d="M70.3,95.07c-.22-.63-.44-1.25-.67-1.87-.23-.62-.46-1.25-.67-1.89h-6.75c-.22.65-.44,1.28-.66,1.91s-.44,1.25-.66,1.86h-3.02c.6-1.71,1.17-3.29,1.7-4.73.54-1.45,1.07-2.81,1.58-4.1.52-1.29,1.03-2.52,1.53-3.69.51-1.17,1.03-2.33,1.57-3.46h2.78c.54,1.14,1.06,2.29,1.57,3.46.51,1.17,1.02,2.4,1.54,3.69.52,1.29,1.04,2.66,1.59,4.1.55,1.45,1.12,3.02,1.72,4.73h-3.14ZM65.59,82.17c-.35.82-.76,1.81-1.21,2.98-.46,1.17-.93,2.44-1.42,3.8h5.26c-.5-1.37-.97-2.64-1.43-3.83-.47-1.19-.86-2.17-1.2-2.96Z"/>
      <path class="cls-1" d="M73.86,89.04c0-.89.14-1.73.41-2.51.28-.77.68-1.45,1.19-2.02.52-.57,1.14-1.01,1.88-1.34.74-.32,1.57-.49,2.49-.49.73,0,1.43.08,2.11.26.63.16,1.01.79.85,1.42v.07c-.17.61-.8.97-1.4.83h-.01c-.41-.09-.84-.14-1.31-.14-1.1,0-1.92.35-2.49,1.03-.57.68-.86,1.65-.86,2.9s.27,2.15.81,2.85c.54.7,1.45,1.05,2.72,1.05.48,0,.95-.04,1.41-.14.47-.09.86-.21,1.2-.35l.39,2.3c-.31.16-.77.29-1.4.41s-1.27.19-1.93.19c-1.03,0-1.93-.16-2.69-.47-.76-.32-1.39-.75-1.89-1.31-.5-.56-.87-1.23-1.12-2.01-.26-.78-.38-1.63-.38-2.54Z"/>
      <path class="cls-1" d="M88.97,82.7c.92,0,1.7.11,2.33.35.63.23,1.13.56,1.51.97.38.41.65.92.81,1.51.17.59.24,1.25.24,1.95v7.32c-.43.09-1.08.2-1.95.34-.87.13-1.85.2-2.94.2-.72,0-1.38-.07-1.98-.21-.6-.14-1.11-.36-1.53-.67-.42-.31-.76-.71-.99-1.2-.24-.5-.36-1.1-.36-1.82s.14-1.28.41-1.76c.27-.48.64-.86,1.1-1.16.47-.3,1-.52,1.61-.65.61-.13,1.25-.2,1.91-.2.31,0,.63.02.97.06.34.04.7.11,1.09.2v-.47c0-.32-.04-.63-.11-.92s-.21-.55-.41-.77c-.2-.23-.45-.4-.77-.52-.32-.12-.71-.18-1.19-.18-.65,0-1.24.05-1.78.14-.06,0-.12.02-.17.03-.63.12-1.23-.32-1.33-.95-.09-.6.3-1.16.89-1.29.16-.03.32-.07.5-.1.65-.12,1.37-.18,2.15-.18ZM89.21,93.11c.86,0,1.52-.05,1.96-.14v-3.09c-.15-.05-.38-.09-.67-.14-.29-.05-.62-.07-.97-.07-.31,0-.62.02-.93.07-.32.05-.6.13-.86.26-.26.12-.46.29-.62.52-.16.23-.23.5-.23.84,0,.66.21,1.12.62,1.37.42.25.98.38,1.69.38Z"/>
      <path class="cls-1" d="M106.35,94.7c-.56.17-1.25.32-2.09.47-.84.14-1.72.21-2.64.21s-1.81-.15-2.56-.44-1.4-.71-1.93-1.26c-.53-.55-.94-1.21-1.22-1.99-.29-.77-.43-1.65-.43-2.62s.12-1.82.36-2.6.59-1.44,1.05-2c.47-.56,1.02-.98,1.68-1.28.66-.3,1.42-.45,2.28-.45.59,0,1.1.07,1.55.21.44.14.83.29,1.16.47v-4.61c0-.68.5-1.27,1.17-1.38.85-.14,1.62.52,1.62,1.38v15.89ZM98.35,89c0,1.23.29,2.2.88,2.9s1.4,1.05,2.42,1.05c.45,0,.83-.02,1.14-.06.32-.04.57-.08.77-.13v-6.92c-.25-.17-.57-.32-.98-.47-.41-.15-.84-.22-1.31-.22-1.01,0-1.76.35-2.23,1.04-.46.69-.7,1.63-.7,2.81Z"/>
      <path class="cls-1" d="M108.12,89.09c0-1.06.16-1.99.47-2.79.32-.8.74-1.46,1.26-2,.53-.53,1.13-.93,1.8-1.2s1.37-.41,2.08-.41c1.66,0,2.96.52,3.89,1.55.93,1.03,1.4,2.57,1.4,4.62,0,.16,0,.33,0,.52,0,.2-.02.37-.04.52h-7.96c.07.97.42,1.72,1.03,2.25.61.53,1.49.8,2.64.8.68,0,1.3-.06,1.86-.19.18-.04.35-.08.5-.12.44-.12.89.17.97.62l.13.77c.06.38-.16.75-.53.86h0c-.27.08-.58.16-.92.23-.35.07-.72.13-1.12.17-.4.05-.81.07-1.22.07-1.06,0-1.98-.16-2.77-.47-.78-.32-1.43-.75-1.94-1.31-.51-.56-.89-1.22-1.13-1.98-.26-.75-.38-1.59-.38-2.5ZM116.22,87.84c0-.38-.05-.75-.16-1.1-.11-.35-.26-.65-.47-.9-.21-.26-.47-.45-.77-.6-.3-.15-.66-.22-1.07-.22s-.81.08-1.13.24c-.32.17-.59.38-.82.64-.22.26-.4.56-.52.9-.13.34-.21.68-.25,1.04h5.2Z"/>
      <path class="cls-1" d="M127.71,88.72c0-1.26-.16-2.17-.47-2.73-.31-.56-.91-.84-1.76-.84-.31,0-.65.02-1.01.07-.37.05-.65.08-.83.11v9.74h-2.79v-11.68c.54-.15,1.25-.3,2.11-.44.87-.14,1.79-.21,2.75-.21.83,0,1.51.11,2.04.32.53.22.98.5,1.33.86.17-.12.38-.26.65-.39.26-.14.55-.26.88-.38.32-.11.67-.21,1.03-.29.37-.08.74-.11,1.12-.11.93,0,1.7.14,2.3.41.61.27,1.09.65,1.43,1.13.35.49.59,1.07.71,1.76.13.68.19,1.43.19,2.25v6.78h-2.79v-6.36c0-1.26-.16-2.17-.47-2.73-.31-.56-.9-.84-1.78-.84-.44,0-.87.08-1.27.22-.4.15-.7.29-.9.43.12.38.21.8.26,1.22.04.43.07.89.07,1.39v5.28c0,.77-.62,1.4-1.4,1.4s-1.4-.62-1.4-1.4v-4.96h0Z"/>
      <path class="cls-1" d="M149.82,83c-1.25,4.59-2.69,8.74-4.33,12.46-.31.69-.62,1.28-.95,1.78-.32.5-.68.9-1.09,1.22-.4.32-.85.56-1.34.71-.5.15-1.08.22-1.74.22-.44,0-.89-.05-1.32-.15-.39-.09-.69-.19-.89-.29l.51-2.24c.56.22,1.1.32,1.64.32.73,0,1.3-.17,1.7-.52.41-.35.77-.88,1.08-1.61-.88-1.69-1.73-3.53-2.54-5.54-.59-1.46-1.13-2.97-1.63-4.55-.29-.9.4-1.82,1.34-1.82.64,0,1.19.43,1.36,1.04.09.34.2.7.3,1.06.22.76.47,1.52.73,2.3.26.78.54,1.55.83,2.32.29.77.59,1.49.88,2.15.49-1.37.95-2.83,1.38-4.38.43-1.55.82-3.04,1.17-4.49h2.9Z"/>
      <path class="cls-1" d="M153.78,95.88c-.32,0-.66-.02-1.01-.06-.34-.05-.67-.1-.98-.17-.31-.07-.59-.14-.84-.22-.26-.08-.46-.16-.6-.23l-.11-.06.5-2.15.19.09c.24.11.59.25,1.06.39.46.14,1.03.22,1.71.22.89,0,1.53-.17,1.91-.5.38-.33.56-.77.56-1.32,0-.36-.07-.66-.22-.89-.15-.24-.34-.43-.6-.57-.26-.15-.56-.26-.91-.32-.35-.06-.73-.1-1.12-.1-.5,0-.89-.4-.89-.89v-.29c0-.5.4-.89.89-.89h.16c.26,0,.53-.02.8-.08.25-.05.49-.14.7-.26.2-.12.37-.29.5-.49.13-.2.19-.46.19-.78,0-.26-.04-.47-.14-.65-.1-.18-.22-.32-.37-.44-.16-.12-.33-.2-.54-.26s-.44-.08-.67-.08c-.51,0-.97.08-1.36.23-.4.16-.76.33-1.07.53l-.16.1-.92-1.89.12-.08c.17-.11.38-.23.62-.35.24-.12.51-.24.81-.35.29-.11.62-.2.96-.26.34-.07.71-.1,1.08-.1.7,0,1.31.09,1.82.26.52.17.95.42,1.29.74.34.32.6.7.77,1.13.16.43.25.9.25,1.4,0,.6-.16,1.15-.5,1.62-.19.26-.4.5-.65.7l-.28.22.3.18c.38.23.71.51.99.86.44.55.67,1.26.67,2.11,0,.56-.1,1.1-.29,1.58-.2.49-.51.92-.92,1.27-.41.35-.92.63-1.54.83-.59.17-1.32.27-2.16.27Z"/>
      <path class="cls-1" d="M164.16,95.88c-1.46,0-2.58-.49-3.35-1.46-.76-.95-1.15-2.28-1.15-3.95,0-1.2.18-2.28.53-3.21.36-.94.87-1.73,1.53-2.38.66-.64,1.47-1.13,2.4-1.47.39-.14,1.16-.28,2.23-.4.04,0,.08,0,.12,0,.54,0,1,.43,1.04.97.04.56-.38,1.06-.95,1.1-.44.04-.74.08-.92.12-.53.12-1.02.31-1.44.56-.42.25-.78.58-1.08.97-.15.2-.28.42-.4.66l-.22.46.49-.12c.37-.09.77-.14,1.17-.14.75,0,1.4.11,1.94.32.53.22.98.51,1.31.89.33.37.58.8.74,1.29.15.48.23.99.23,1.52,0,.48-.08.98-.25,1.47-.16.5-.43.97-.77,1.38-.35.41-.8.75-1.32,1.02-.53.28-1.16.41-1.88.41ZM163.91,89.64c-.33,0-.65.03-.97.09-.21.04-.41.09-.6.16l-.15.05v.21c-.02.11-.02.22-.02.32,0,.47.03.91.1,1.31.06.4.17.75.32,1.05.15.29.35.51.6.68.25.17.57.25.95.25.31,0,.58-.07.8-.19.23-.14.4-.29.54-.5.14-.21.25-.44.32-.68.07-.25.1-.5.1-.73,0-.67-.16-1.17-.47-1.52-.3-.35-.8-.51-1.5-.51Z"/>
      <path class="cls-1" d="M173.74,95.88c-1.39,0-2.49-.59-3.28-1.73-.77-1.13-1.16-2.76-1.16-4.86,0-1.04.1-1.97.3-2.78.2-.81.5-1.51.88-2.07.38-.56.86-1,1.41-1.3.55-.29,1.18-.44,1.86-.44,1.39,0,2.49.59,3.28,1.73.77,1.13,1.16,2.76,1.16,4.86s-.39,3.73-1.16,4.86c-.8,1.16-1.9,1.73-3.29,1.73ZM173.74,84.89c-.35,0-.64.11-.88.32-.25.22-.44.53-.59.9-.15.39-.26.86-.33,1.4-.06.55-.1,1.14-.1,1.77s.03,1.23.1,1.77c.07.54.17,1.01.33,1.4.15.38.35.68.59.91.24.21.53.32.88.32s.63-.11.86-.32c.24-.22.44-.53.59-.91.16-.39.27-.86.34-1.41.07-.55.1-1.14.1-1.77s-.04-1.23-.1-1.77c-.07-.54-.18-1.01-.34-1.41-.15-.38-.34-.69-.59-.91-.23-.19-.51-.29-.86-.29Z"/>
    </g>
  </g>
</svg>