<?xml version="1.0" encoding="UTF-8"?>
<svg id="Layer_1" data-name="Layer 1" xmlns="http://www.w3.org/2000/svg" viewBox="0 0 190 150">
  <defs>
    <style>
      .cls-1 {
        fill: #0096d6;
      }
    </style>
  </defs>
  <path class="cls-1" d="M95.17,14.49l-13.02,36.5h8.85c6.38,0,9.09,5.03,7.08,10.66l-12.95,36.29h-13.03l14.24-39.94h-6.71l-14.24,39.94h-13.14l29.22-81.94c-26.91,6.14-47,30.22-47,58.99s19.46,52.1,45.74,58.69l29.52-82.9h21.38c4.42,0,9.98,2.98,7.58,9.77l-12.01,33.9c-1.53,4.33-5.18,5.21-8.08,5.21h-13.14l-12.75,35.8c.75.03,1.5.05,2.26.05,33.42,0,60.51-27.09,60.51-60.51,0-33.36-27-60.42-60.34-60.51h0ZM120.36,57.92l-12.4,34.81h6.6l12.4-34.81h-6.61Z"/>
</svg>