<?xml version="1.0" encoding="UTF-8"?>
<svg id="Layer_1" data-name="Layer 1" xmlns="http://www.w3.org/2000/svg" viewBox="0 0 190 150">
  <defs>
    <style>
      .cls-1 {
        fill: #1f70c1;
      }
    </style>
  </defs>
  <path class="cls-1" d="M47.24,101.84v4.34h-30.39v-4.34h30.39ZM94.74,101.84c-3.05,2.8-7.04,4.35-11.18,4.34h0l-31.97-.04v-4.3h43.15ZM139.93,101.84l-1.52,4.34-1.5-4.34h3.02ZM125.39,101.84v4.34h-21.71v-4.34h21.71ZM173.15,101.84v4.34h-21.71v-4.34h21.71ZM99.65,93.55c-.37,1.52-.96,2.98-1.75,4.34h-46.32v-4.34h48.07ZM142.83,93.55l-1.52,4.34h-5.79l-1.52-4.34h8.84ZM125.39,93.55v4.34h-21.71v-4.34h21.71ZM173.15,93.55v4.34h-21.71v-4.34h21.71ZM47.24,93.55v4.34h-30.39v-4.34h30.39ZM38.56,85.26v4.34h-13.02v-4.34h13.02ZM73.29,85.26v4.34h-13.02v-4.34h13.02ZM99.55,85.26c.38,1.42.58,2.88.58,4.34h-14.6v-4.34h14.02ZM145.75,85.26l-1.52,4.34h-11.61l-1.52-4.34h14.66ZM125.39,85.26v4.34h-13.02v-4.34h13.02ZM164.47,85.26v4.34h-13.02v-4.34h13.02ZM38.56,76.97v4.34h-13.02v-4.34h13.02ZM125.39,76.97v4.34h-13.02v-4.34h13.02ZM164.47,76.97v4.34h-13.02v-4.34h13.02ZM94.28,76.97c1.45,1.23,2.67,2.7,3.62,4.34h-37.64v-4.34h34.01ZM148.65,76.97l-1.52,4.34h-17.43l-1.52-4.34h20.48ZM137.2,68.69l1.22,3.51,1.22-3.51h24.83v4.34h-13.02v-3.99l-1.4,3.99h-23.25l-1.4-3.99v3.99h-13.02v-4.34h24.83ZM60.27,68.68h37.64c-.95,1.64-2.18,3.11-3.62,4.34h-34.01v-4.34ZM38.56,68.68v4.34h-13.02v-4.34h13.02ZM38.56,60.4v4.34h-13.02v-4.34h13.02ZM73.29,60.4v4.34h-13.02v-4.34h13.02ZM100.13,60.4c0,1.47-.2,2.93-.58,4.34h-14.02v-4.34h14.6ZM134.31,60.4l1.51,4.34h-23.46v-4.34h21.95ZM164.47,60.4v4.34h-23.46l1.51-4.34h21.95ZM47.24,52.11v4.34h-30.39v-4.34h30.39ZM97.91,52.11c.79,1.36,1.37,2.82,1.75,4.34h-48.07v-4.34h46.32ZM173.15,52.11v4.34h-29.26l1.51-4.34h27.75ZM131.43,52.11l1.51,4.34h-29.26v-4.34h27.75ZM47.24,43.82v4.34h-30.39v-4.34h30.39ZM83.55,43.82c4.14,0,8.13,1.54,11.18,4.34h-43.15v-4.34h31.97ZM173.15,43.82v4.34h-26.38l1.51-4.34h24.87ZM128.55,43.82l1.51,4.34h-26.38v-4.34h24.87Z"/>
</svg>