<?xml version="1.0" encoding="UTF-8"?>
<svg id="Layer_1" data-name="Layer 1" xmlns="http://www.w3.org/2000/svg" viewBox="0 0 190 150">
  <defs>
    <style>
      .cls-1 {
        fill: #6a69ae;
      }

      .cls-2 {
        fill: #f58323;
      }
    </style>
  </defs>
  <path class="cls-1" d="M28.24,92.19c.91.15,2.44.63,3.47.86,4.61,1.05,13.97,4.73,17.72,7.54,2.14,1.6,3.09,3.53-.09,4.56h-5.49c-3.33-.91-6.48-2.45-9.34-4.37-2.18-1.47-4.06-3.47-6.27-4.84-1.37-.85-1.39-.79-2.89-1.15-3.67-.88-3.88-.07-7.11.26-2.72.28-2.44-.38-4.38-1.05s-3.92.04-5.56-1.23v-.58c.39-.2.68-.63,1.08-.8,2.75-1.16,15.31.2,18.86.8Z"/>
  <path class="cls-2" d="M124.19,84.12v8.93h-6.07v-26.79h11.13c.33,0,2.36,1,2.73,1.31.98.84,1.62,2.33,1.91,3.57.55,2.33.54,7.77-.58,9.83-.49.9-2.87,3.15-3.77,3.15h-5.35ZM123.61,71.44v6.48c0,.73,4.11.96,4.78-1.58.96-3.66-1.38-5.2-4.78-4.91Z"/>
  <path class="cls-2" d="M28.24,92.19c3.69-4.63,7.03-9.58,9.3-15.07.48-1.17,1.54-3.54,1.68-4.67.08-.64-.06-.33-.43-.42-3.09-.75-5.23-.19-5.63-4.19-.1-.99-.41-5.01,1.05-4.98,1.85.03.03,3.28,1.86,4.38,1.27.77,2.23.38,3.42-.28.42-.23,3.97-3.03,4.2-3.31,2.83-3.44,1.18-13.16,1.96-17.35.26-1.41,1.49-2.03,2.1-.79.46.94.12,9.53.13,11.39.07,10.17-1.14,18.14-4.41,27.85-.46,1.38-2.06,6.13-2.79,7.01-.59.71-1.47.42-1.7-.37-.36-1.25,2.3-7.86,2.52-10.05.02-.21.33-2.48-.39-2.12-2.91,4.75-5.42,9.84-9.4,13.83-1.03-.24-2.55-.71-3.47-.86Z"/>
  <path class="cls-2" d="M147.16,92.47c-.33-.11-.46-.81-.44-1.15-.73-.09-.68.61-1.23.96-2.75,1.72-7.16-.02-8.65-2.77-3.04-5.63-1.51-16.93,6.82-15.73,1.76.25,2.06,1.08,3.06,2.28.08-.27-.1-2.02,0-2.02h5.49v18.44c-1.25-.25-4.05.34-5.06,0ZM143.18,79.86c-3.4.76-2.88,7.83,1.61,6.79,3.32-.76,2.68-7.75-1.61-6.79Z"/>
  <path class="cls-2" d="M165.66,92.76c-.33-.11-.46-.81-.44-1.15-.97.09-1.23,1.16-2.23,1.38-11.82,2.65-12.38-20.81-.54-18.94,1.69.27,1.74,1.27,2.76,2.29.08-.27-.1-2.02,0-2.02h5.49v18.44c-1.25-.25-4.05.34-5.06,0ZM161.67,80.15c-3.37.76-2.95,7.84,1.61,6.79,3.23-.75,2.74-7.77-1.61-6.79Z"/>
  <path class="cls-1" d="M53.67,74.04c.17.17-.38,2.08.43,1.73.38-.17.59-.87.95-1.15,1.74-1.38,5.69-1.2,7.36.29.2.18,1.09,1.49,1.09,1.59v15.7h-5.2v-11.96c0-1.6-4.05-1.6-4.05,0v11.96h-5.49v-18.15c.71.13,4.74-.17,4.91,0Z"/>
  <path class="cls-1" d="M91.24,84.41h-9.83c-.19,1.78.06,3.59,2.2,3.73s1.92-1.72,2.28-1.72h5.06c.13,3.28-2.81,5.93-5.96,6.31-13.14,1.58-12.69-19.7-.64-18.92,5.86.38,6.85,5.77,6.88,10.59ZM86.33,80.66c-.5-4.05-4.65-4.09-4.91,0h4.91Z"/>
  <rect class="cls-1" x="93.27" y="63.38" width="6.07" height="29.39"/>
  <rect class="cls-1" x="101.36" y="63.38" width="6.07" height="29.39"/>
  <path class="cls-1" d="M72.46,68.85v5.47c0,.13,2.6-.13,2.6,0v5.62c0,.67-2.02.32-2.02.43v11.81h-5.78v-12.39c0-.09-1.73.19-1.73-.43v-5.04c0-.09,1.73.09,1.73,0v-5.47h5.2Z"/>
  <path class="cls-2" d="M179.1,68.85v5.47c0,.13,2.6-.13,2.6,0v6.05c0,.1-2.02-.1-2.02,0v12.1h-5.35s-.43-.4-.43-.43v-12.24c0-.07-1.44.07-1.44,0v-5.47c.36-.06,1.64.09,1.74,0,.41-.4-.96-5.48.14-5.48h4.77Z"/>
  <path class="cls-1" d="M115.52,92.76h-6.07v-18.58s.4-.43.43-.43h5.2s.43.4.43.43v18.58Z"/>
  <path class="cls-1" d="M111.68,64.01c5.02-1.13,5.21,8.15.25,7.42-3.3-.48-3.16-6.76-.25-7.42Z"/>
  <path class="cls-1" d="M39.72,56.81c4.49-.98,4.16,5.94,2.49,6.52-4.27,1.48-5.33-5.9-2.49-6.52Z"/>
  <path class="cls-2" d="M28.24,95.93c-2.61,3.34-7.16,3.33-2.89-1.15,1.5.36,1.52.3,2.89,1.15Z"/>
</svg>