<?xml version="1.0" encoding="UTF-8"?>
<svg id="Layer_1" data-name="Layer 1" xmlns="http://www.w3.org/2000/svg" viewBox="0 0 190 150">
  <defs>
    <style>
      .cls-1 {
        fill: #044c88;
      }

      .cls-2 {
        fill: none;
        stroke: #044c88;
        stroke-miterlimit: 10;
        stroke-width: 10px;
      }
    </style>
  </defs>
  <path class="cls-2" d="M161.11,74.98c0,36.29-29.42,65.72-65.72,65.72S29.68,111.28,29.68,74.98,59.1,9.27,95.39,9.27s65.72,29.42,65.72,65.72Z"/>
  <path class="cls-1" d="M108.17,5.76c8.69,1.74,16.88,5.02,24.39,9.66.24.15.31.49.36.51.11.05.43-.21.44-.18.06.08-.1.53.04.69.1.12,1.02.22,1.43.46,11.14,6.51,22.01,21.77,26.41,33.75l3.06,9.8v28.97l-2.74,9.12c-8.26,23.25-28.94,41.12-53.26,45.58-10.99-.6-22.44,1.46-33.06-1.63-21.71-6.32-39.45-23.57-46.58-45.02-.97-2.92-2.34-7.4-2.58-10.41-.5-6.48-.52-17.78,0-24.24.42-5.29,3.25-12.86,5.53-17.69,8.56-18.1,24.1-31.55,43.19-37.44l7.43-1.93h25.95ZM58.02,66.19h36.92l-.36,1.26-9.49,16.22h-47.53L76.11,16.49l-9.09,3.65c-46.9,24.99-43.33,94.32,7.34,112.74,1.81.66,10.09,3.18,11.45,2.71l29.6-51.91h-19.96l9.98-17.48h47.4l-9.77,17.44-17.55.29-30.06,52.33c-.18.59.99.39,1.38.38,38.19-1.29,66.6-36.71,58.62-74.44-6.44-30.47-36-52.16-67.12-48.2l-.6.4c-9.12,15.55-17.92,31.24-26.98,46.86-.19.32-.78.81-1.13,1.43-.18.31-1.76,3.38-1.61,3.51Z"/>
</svg>