<?xml version="1.0" encoding="UTF-8"?>
<svg id="Layer_1" data-name="Layer 1" xmlns="http://www.w3.org/2000/svg" viewBox="0 0 190 150">
  <defs>
    <style>
      .cls-1 {
        fill: #00adef;
      }

      .cls-2 {
        fill: #80cc28;
      }

      .cls-3 {
        fill: #706d6e;
      }

      .cls-4 {
        fill: #fbbc09;
      }

      .cls-5 {
        fill: #f1511b;
      }
    </style>
  </defs>
  <path class="cls-5" d="M97.29,55.03h-24.86v-24.86h24.86v24.86Z"/>
  <path class="cls-2" d="M124.74,55.03h-24.86v-24.86h24.86v24.86Z"/>
  <path class="cls-1" d="M97.29,82.49h-24.86v-24.86h24.86v24.86Z"/>
  <path class="cls-4" d="M124.74,82.49h-24.86v-24.86h24.86v24.86Z"/>
  <path class="cls-3" d="M172.55,103.45v-3.78h-4.69v-5.87l-.16.05-4.4,1.35-.09.03v4.45h-6.95v-2.48c0-1.15.26-2.04.77-2.62.51-.58,1.23-.88,2.15-.88.66,0,1.35.16,2.04.46l.17.08v-3.98l-.08-.03c-.64-.23-1.52-.35-2.6-.35-1.37,0-2.61.3-3.69.89-1.08.59-1.94,1.43-2.53,2.5-.6,1.07-.9,2.31-.9,3.68v2.72h-3.26v3.77h3.26v15.9h4.69v-15.9h6.95v10.11c0,4.16,1.96,6.27,5.83,6.27.64,0,1.31-.07,1.99-.22.7-.15,1.17-.3,1.45-.46l.06-.04v-3.81l-.19.13c-.25.17-.57.31-.94.41-.37.1-.68.16-.93.16-.91,0-1.58-.24-1.99-.73-.42-.49-.64-1.34-.64-2.53v-9.29h4.69s0,0,0,0ZM137.85,116c-1.7,0-3.04-.56-3.99-1.68-.95-1.12-1.43-2.71-1.43-4.73s.48-3.72,1.43-4.86c.94-1.13,2.27-1.7,3.95-1.7s2.92.55,3.84,1.63c.93,1.09,1.4,2.71,1.4,4.82s-.44,3.78-1.32,4.88c-.87,1.09-2.18,1.64-3.89,1.64M138.06,99.2c-3.24,0-5.82.95-7.66,2.83-1.84,1.88-2.77,4.47-2.77,7.71s.91,5.56,2.7,7.36c1.79,1.81,4.23,2.72,7.25,2.72s5.67-.96,7.51-2.86c1.84-1.9,2.77-4.47,2.77-7.64s-.87-5.63-2.6-7.42c-1.72-1.79-4.15-2.7-7.2-2.7M120.07,99.2c-2.21,0-4.03.56-5.43,1.68-1.4,1.12-2.12,2.59-2.12,4.37,0,.92.15,1.74.46,2.44.3.7.78,1.31,1.4,1.83.62.51,1.58,1.05,2.85,1.59,1.07.44,1.86.81,2.37,1.1.49.29.84.58,1.04.86.19.27.29.65.29,1.12,0,1.32-.99,1.96-3.03,1.96-.76,0-1.62-.16-2.56-.47-.94-.31-1.82-.76-2.62-1.33l-.19-.14v4.51l.07.03c.66.31,1.5.56,2.48.77.98.2,1.88.31,2.65.31,2.4,0,4.32-.57,5.73-1.69,1.42-1.13,2.13-2.63,2.13-4.47,0-1.33-.39-2.46-1.15-3.38-.76-.91-2.07-1.75-3.9-2.48-1.46-.59-2.39-1.07-2.78-1.44-.37-.36-.56-.87-.56-1.52,0-.57.23-1.03.71-1.4.48-.37,1.15-.56,1.99-.56.78,0,1.58.12,2.37.36.79.24,1.49.57,2.07.96l.19.13v-4.28l-.07-.03c-.54-.23-1.25-.43-2.11-.59-.86-.16-1.63-.24-2.31-.24M100.32,116c-1.7,0-3.04-.56-3.99-1.68-.95-1.12-1.43-2.71-1.43-4.73s.48-3.72,1.43-4.86c.94-1.13,2.27-1.7,3.95-1.7s2.92.55,3.84,1.63c.93,1.09,1.4,2.71,1.4,4.82s-.44,3.78-1.32,4.88c-.87,1.09-2.18,1.64-3.89,1.64M100.52,99.2c-3.25,0-5.82.95-7.66,2.83-1.84,1.88-2.77,4.47-2.77,7.71s.91,5.56,2.7,7.36c1.79,1.81,4.23,2.72,7.25,2.72s5.67-.96,7.51-2.86c1.84-1.9,2.77-4.47,2.77-7.64s-.87-5.63-2.6-7.42c-1.72-1.79-4.15-2.7-7.2-2.7M82.98,103.08v-3.41h-4.63v19.68h4.63v-10.07c0-1.71.39-3.12,1.15-4.18.76-1.05,1.76-1.58,2.99-1.58.42,0,.88.07,1.39.2.5.14.86.28,1.08.44l.19.14v-4.67l-.07-.03c-.43-.18-1.04-.28-1.81-.28-1.16,0-2.2.37-3.1,1.11-.78.65-1.35,1.53-1.78,2.64h-.05ZM70.07,99.2c-2.12,0-4.02.46-5.63,1.35-1.61.9-2.86,2.18-3.71,3.82-.84,1.63-1.27,3.53-1.27,5.66,0,1.86.42,3.57,1.24,5.07.82,1.51,1.99,2.68,3.46,3.5,1.47.82,3.18,1.23,5.06,1.23,2.2,0,4.08-.44,5.58-1.31l.06-.03v-4.24l-.19.14c-.69.5-1.46.9-2.27,1.18-.82.28-1.56.43-2.22.43-1.82,0-3.27-.57-4.33-1.69-1.06-1.12-1.6-2.7-1.6-4.68s.56-3.61,1.67-4.8c1.1-1.19,2.56-1.79,4.34-1.79,1.52,0,3,.52,4.41,1.53l.19.14v-4.47l-.06-.03c-.53-.3-1.25-.54-2.14-.72-.89-.19-1.76-.28-2.59-.28M56.26,99.68h-4.63v19.68h4.63v-19.68ZM53.99,91.29c-.76,0-1.43.26-1.97.77-.55.52-.83,1.16-.83,1.93s.28,1.39.82,1.89c.54.5,1.21.75,1.98.75s1.44-.25,1.99-.75c.55-.5.83-1.14.83-1.89s-.27-1.38-.81-1.91c-.53-.53-1.21-.79-2.01-.79M42.45,98.22v21.13h4.72v-27.46h-6.54l-8.31,20.39-8.06-20.39h-6.8v27.46h4.44v-21.13h.15l8.52,21.13h3.35l8.38-21.13h.15s0,0,0,0Z"/>
</svg>