<?xml version="1.0" encoding="UTF-8"?>
<svg id="Layer_1" data-name="Layer 1" xmlns="http://www.w3.org/2000/svg" xmlns:xlink="http://www.w3.org/1999/xlink" viewBox="0 0 190 150">
  <defs>
    <style>
      .cls-1 {
        fill: url(#linear-gradient-2);
      }

      .cls-2 {
        fill: url(#linear-gradient-4);
      }

      .cls-3 {
        fill: url(#linear-gradient-3);
      }

      .cls-4 {
        fill: url(#linear-gradient-5);
      }

      .cls-5 {
        fill: url(#linear-gradient-8);
      }

      .cls-6 {
        fill: url(#linear-gradient-7);
      }

      .cls-7 {
        fill: url(#linear-gradient-9);
      }

      .cls-8 {
        fill: url(#linear-gradient-6);
      }

      .cls-9 {
        fill: #007dc5;
      }

      .cls-10 {
        fill: url(#linear-gradient);
      }
    </style>
    <linearGradient id="linear-gradient" x1="16.94" y1="437.69" x2="16.94" y2="424.87" gradientTransform="translate(0 492) scale(1 -1)" gradientUnits="userSpaceOnUse">
      <stop offset="0" stop-color="#ffc708"/>
      <stop offset="1" stop-color="#f05731"/>
      <stop offset="1" stop-color="#f05731"/>
    </linearGradient>
    <linearGradient id="linear-gradient-2" x1="23.99" y1="427.84" x2="20.63" y2="403.59" gradientTransform="translate(0 492) scale(1 -1)" gradientUnits="userSpaceOnUse">
      <stop offset="0" stop-color="#f80000"/>
      <stop offset="1" stop-color="#ee3984"/>
    </linearGradient>
    <linearGradient id="linear-gradient-3" x1="19.33" y1="399.15" x2="36.88" y2="404.72" gradientTransform="translate(0 492) scale(1 -1)" gradientUnits="userSpaceOnUse">
      <stop offset="0" stop-color="#ee3984"/>
      <stop offset="1" stop-color="#7800da"/>
      <stop offset="1" stop-color="#7800da"/>
    </linearGradient>
    <linearGradient id="linear-gradient-4" x1="43.19" y1="421.11" x2="49.6" y2="398.5" gradientTransform="translate(0 492) scale(1 -1)" gradientUnits="userSpaceOnUse">
      <stop offset="0" stop-color="red"/>
      <stop offset="1" stop-color="#ee3984"/>
      <stop offset="1" stop-color="#ee3984"/>
    </linearGradient>
    <linearGradient id="linear-gradient-5" x1="30.08" y1="421.05" x2="58.38" y2="421.05" gradientTransform="translate(0 492) scale(1 -1)" gradientUnits="userSpaceOnUse">
      <stop offset="0" stop-color="#ffc708"/>
      <stop offset="1" stop-color="#fa3b00"/>
    </linearGradient>
    <linearGradient id="linear-gradient-6" x1="65.69" y1="412.66" x2="85.25" y2="412.66" gradientTransform="translate(0 492) scale(1 -1)" gradientUnits="userSpaceOnUse">
      <stop offset="0" stop-color="red"/>
      <stop offset="1" stop-color="#ee3984"/>
    </linearGradient>
    <linearGradient id="linear-gradient-7" x1="81.47" y1="403.22" x2="64.25" y2="398.67" gradientTransform="translate(0 492) scale(1 -1)" gradientUnits="userSpaceOnUse">
      <stop offset="0" stop-color="#ee3984"/>
      <stop offset="1" stop-color="#7800da"/>
    </linearGradient>
    <linearGradient id="linear-gradient-8" x1="67.83" y1="423.57" x2="84.28" y2="423.57" gradientTransform="translate(0 492) scale(1 -1)" gradientUnits="userSpaceOnUse">
      <stop offset="0" stop-color="#ffc708"/>
      <stop offset="1" stop-color="#f05731"/>
      <stop offset="1" stop-color="#f05731"/>
    </linearGradient>
    <linearGradient id="linear-gradient-9" x1="46.27" y1="402.55" x2="58.26" y2="422.12" xlink:href="#linear-gradient-7"/>
  </defs>
  <g>
    <polygon class="cls-9" points="97.05 71.37 100.48 71.37 100.48 65.26 102.91 65.26 102.91 62.79 94.62 62.79 94.62 65.26 97.05 65.26 97.05 71.37"/>
    <polygon class="cls-9" points="105.43 71.37 107.18 66.24 108.92 71.37 112.27 71.37 108.99 62.79 105.36 62.79 102.08 71.37 105.43 71.37"/>
    <polygon class="cls-9" points="113.88 71.37 117.3 71.37 117.3 65.26 119.73 65.26 119.73 62.79 111.45 62.79 111.45 65.26 113.88 65.26 113.88 71.37"/>
    <polygon class="cls-9" points="122.26 71.37 124 66.24 125.74 71.37 129.09 71.37 125.81 62.79 122.19 62.79 118.91 71.37 122.26 71.37"/>
    <path class="cls-9" d="M155.12,77.5c.42.97.98,2.02,1.54,2.96l2.24,3.77h1.62v-8.58h-1.45v2.99c0,1.31.03,2.42.14,3.55h-.03c-.4-.92-.89-1.92-1.46-2.87l-2.22-3.68h-1.79v8.58h1.45v-3.07c0-1.41-.02-2.54-.08-3.66h.04Z"/>
    <path class="cls-9" d="M147.34,81.81h2.72l.78,2.42h1.68l-2.79-8.58h-1.99l-2.75,8.58h1.62l.73-2.42ZM148.26,78.51c.15-.51.28-1.1.41-1.61h.03c.13.5.27,1.08.43,1.61l.68,2.12h-2.21l.67-2.12Z"/>
    <path class="cls-9" d="M121.8,83.07c-.8,0-1.57-.26-2.07-.55l-.35,1.3c.47.29,1.41.55,2.32.55,2.21,0,3.25-1.2,3.25-2.58,0-1.23-.72-1.98-2.21-2.55-1.14-.44-1.64-.75-1.64-1.4,0-.51.42-1.03,1.42-1.03.81,0,1.4.24,1.71.41l.38-1.26c-.45-.23-1.13-.42-2.06-.42-1.86,0-3.04,1.06-3.04,2.46,0,1.23.9,1.99,2.32,2.49,1.08.39,1.52.78,1.52,1.42,0,.7-.56,1.17-1.56,1.17Z"/>
    <path class="cls-9" d="M99.28,76.81c.7,0,1.27.15,1.67.34l.34-1.25c-.32-.17-1.05-.38-2.08-.38-2.62,0-4.59,1.7-4.59,4.52,0,2.61,1.66,4.32,4.38,4.32,1.04,0,1.85-.2,2.22-.39l-.26-1.23c-.41.19-1.08.31-1.71.31-1.89,0-2.99-1.2-2.99-3.09,0-2.06,1.26-3.15,3.01-3.15Z"/>
    <polygon class="cls-9" points="143.08 84.23 143.08 76.97 145.55 76.97 145.55 75.65 139.06 75.65 139.06 76.97 141.52 76.97 141.52 84.23 143.08 84.23"/>
    <path class="cls-9" d="M174.4,75.65l-1.03,2.2c-.29.62-.53,1.15-.74,1.7h-.03c-.23-.58-.46-1.07-.75-1.7l-1.02-2.2h-1.79l2.71,5.01v3.57h1.57v-3.61l2.85-4.96h-1.77Z"/>
    <path class="cls-9" d="M105.84,75.51c-2.42,0-4.08,1.86-4.08,4.49s1.53,4.37,3.96,4.37h.01c2.35,0,4.09-1.64,4.09-4.52,0-2.45-1.48-4.34-3.98-4.34ZM105.77,83.12h-.01c-1.5,0-2.37-1.44-2.37-3.15,0-1.71.82-3.2,2.39-3.2s2.37,1.53,2.37,3.15c0,1.79-.86,3.2-2.37,3.2Z"/>
    <path class="cls-9" d="M166.53,76.81c.7,0,1.27.15,1.67.34l.34-1.25c-.32-.17-1.05-.38-2.08-.38-2.62,0-4.59,1.7-4.59,4.52,0,2.61,1.66,4.32,4.38,4.32,1.04,0,1.85-.2,2.22-.39l-.26-1.23c-.41.19-1.08.31-1.71.31-1.89,0-2.99-1.2-2.99-3.09,0-2.06,1.26-3.15,3.01-3.15Z"/>
    <polygon class="cls-9" points="136.41 75.65 134.84 75.65 134.84 84.23 139.93 84.23 139.93 82.92 136.41 82.92 136.41 75.65"/>
    <path class="cls-9" d="M133.06,80.55v-4.9h-1.57v5c0,1.68-.68,2.46-1.81,2.46-1.06,0-1.76-.78-1.76-2.46v-5h-1.57v4.91c0,2.7,1.29,3.81,3.27,3.81,2.07,0,3.43-1.18,3.43-3.82Z"/>
    <path class="cls-9" d="M117.96,75.65h-1.45v2.99c0,1.31.03,2.42.14,3.55h-.03c-.4-.92-.89-1.92-1.46-2.87l-2.22-3.68h-1.79v8.58h1.45v-3.07c0-1.41-.02-2.54-.08-3.65h.04c.42.96.98,2.01,1.54,2.95l2.24,3.77h1.62v-8.58h0Z"/>
    <rect class="cls-9" x="123.1" y="88.52" width="1.57" height="8.58"/>
    <path class="cls-9" d="M112.33,93.08v-.03c.8-.28,1.55-1.03,1.55-2.13,0-.73-.27-1.32-.73-1.71-.57-.48-1.56-.69-2.63-.69s-1.76.07-2.36.18v8.4h1.54v-3.5h.78c.88.02,1.29.38,1.53,1.49.24,1.06.44,1.76.57,2.01h1.6c-.17-.33-.4-1.31-.67-2.37-.21-.83-.57-1.42-1.19-1.65ZM110.62,92.46h-.92v-2.69c.16-.04.47-.08.97-.08,1.01,0,1.66.44,1.66,1.37,0,.85-.65,1.4-1.7,1.4Z"/>
    <path class="cls-9" d="M119.26,92.44c-.33,1.04-.64,2.09-.87,3.1h-.03c-.22-1.04-.52-2.04-.84-3.12l-1.17-3.9h-1.71l2.78,8.58h1.8l2.96-8.58h-1.67l-1.25,3.92Z"/>
    <polygon class="cls-9" points="135.51 93.29 138.74 93.29 138.74 92.02 135.51 92.02 135.51 89.81 138.93 89.81 138.93 88.52 133.94 88.52 133.94 97.1 139.12 97.1 139.12 95.81 135.51 95.81 135.51 93.29"/>
    <path class="cls-9" d="M130.67,89.68c.7,0,1.27.15,1.67.34l.34-1.25c-.32-.17-1.05-.38-2.08-.38-2.62,0-4.59,1.7-4.59,4.52,0,2.61,1.66,4.32,4.38,4.32,1.04,0,1.85-.2,2.22-.39l-.26-1.23c-.42.19-1.08.31-1.71.31-1.89,0-2.99-1.2-2.99-3.09,0-2.06,1.26-3.15,3.01-3.15Z"/>
    <path class="cls-9" d="M97.99,92.11c-1.15-.44-1.64-.75-1.64-1.4,0-.51.42-1.03,1.42-1.03.81,0,1.4.24,1.71.41l.38-1.26c-.45-.23-1.13-.42-2.06-.42-1.86,0-3.04,1.06-3.04,2.46,0,1.23.9,1.99,2.32,2.49,1.08.39,1.52.78,1.52,1.42,0,.7-.56,1.17-1.56,1.17-.8,0-1.57-.26-2.07-.55l-.35,1.3c.47.29,1.41.55,2.32.55,2.21,0,3.25-1.2,3.25-2.58,0-1.24-.71-1.99-2.2-2.55Z"/>
    <polygon class="cls-9" points="103.17 93.29 106.4 93.29 106.4 92.02 103.17 92.02 103.17 89.81 106.6 89.81 106.6 88.52 101.6 88.52 101.6 97.1 106.79 97.1 106.79 95.81 103.17 95.81 103.17 93.29"/>
    <path class="cls-9" d="M143.49,92.11c-1.14-.44-1.64-.75-1.64-1.4,0-.51.42-1.03,1.42-1.03.81,0,1.4.24,1.71.41l.38-1.26c-.45-.23-1.13-.42-2.06-.42-1.86,0-3.04,1.06-3.04,2.46,0,1.23.9,1.99,2.32,2.49,1.08.39,1.52.78,1.52,1.42,0,.7-.56,1.17-1.56,1.17-.8,0-1.57-.26-2.07-.55l-.35,1.3c.47.29,1.41.55,2.32.55,2.21,0,3.25-1.2,3.25-2.58,0-1.24-.71-1.99-2.2-2.55Z"/>
  </g>
  <g>
    <path class="cls-10" d="M13.83,68.66c0-3.88,2.53-6.22,6.22-6.22v-6.6c0-1.94-1.3-3.24-3.11-3.24s-3.11,1.3-3.11,3.24v12.82Z"/>
    <path class="cls-1" d="M24.84,97.34c1.55,0,2.98-.26,4.27-.71-6.54,1.1-9.07-3.37-9.07-8.42v-20.72h7.58c1.75,0,2.91-1.04,2.91-2.53s-1.17-2.53-2.91-2.53h-7.58c-3.69,0-6.22,2.33-6.22,6.22v17.8c0,7.12,4.08,10.88,11.01,10.88Z"/>
    <path class="cls-3" d="M29.11,96.62c2.59-.97,4.6-2.78,5.89-5.44l-2.91-5.24c-1.3,3.88-3.56,5.96-6.67,5.96s-5.38-1.88-5.38-6.15v2.46c0,5.05,2.53,9.52,9.07,8.42Z"/>
    <path class="cls-2" d="M55.72,95.59c-14.76,2.2-19.42-5.7-19.42-15.86,0-7.38,4.53-12.43,11.07-12.43,2.39,0,4.4.52,6.22,1.36.84.39,1.55.52,2.2.52,1.55,0,2.59-1.04,2.59-2.59,0-.97-.58-1.94-1.94-2.59-2.46-1.23-5.63-1.94-9.07-1.94-10.23,0-17.29,7.25-17.29,17.8s6.8,17.55,17.74,17.55c2.98,0,5.57-.59,7.9-1.81Z"/>
    <path class="cls-4" d="M30.08,79.85c0-10.55,7.06-17.8,17.29-17.8,3.43,0,6.6.71,9.07,1.94,1.36.65,1.94,1.62,1.94,2.59,0,1.55-1.04,2.59-2.59,2.59-.65,0-1.36-.13-2.2-.52-2.2-1.04-4.34-1.36-6.22-1.36-9,0-17.29,5.7-17.29,12.56Z"/>
    <path class="cls-8" d="M68.74,64.12c-.58.58-.91,1.3-.91,2.14,0,2.14,2.01,5.31,6.67,8.55l5.31,3.69c3.88,2.72,5.44,5.31,5.44,9.19,0,2.78-1.1,5.18-2.91,6.86.65-.58,1.04-1.36,1.04-2.39,0-2.27-2.27-5.83-7.12-9.19l-4.86-3.37c-4.08-2.85-5.7-5.5-5.7-9.13,0-2.14.78-4.08,2.07-5.5.33-.33.65-.59.97-.84Z"/>
    <path class="cls-6" d="M64.53,93.19c0,1.04.52,1.88,1.88,2.53,1.88.91,4.92,1.68,7.64,1.68,3.43,0,6.28-1.04,8.29-2.85.65-.58,1.04-1.36,1.04-2.39,0-2.27-2.27-5.83-7.12-9.19,2.2,1.55,3.11,2.85,3.11,4.73,0,2.78-2.2,4.66-5.38,4.66s-5.63-1.55-7.06-1.55-2.39.97-2.39,2.39Z"/>
    <path class="cls-5" d="M74.5,74.81c-2.07-1.49-2.98-2.85-2.98-4.47,0-2.07,1.68-3.37,4.08-3.37,3.04,0,4.47,1.42,6.28,1.42,1.42,0,2.39-.97,2.39-2.39,0-1.04-.52-1.88-1.88-2.53-2.14-1.04-4.47-1.42-6.99-1.42-2.66,0-4.99.78-6.67,2.07-.58.58-.91,1.3-.91,2.14,0,2.13,2.01,5.31,6.67,8.54Z"/>
    <path class="cls-7" d="M36.3,79.73c0,10.16,4.66,18.06,19.42,15.86,4.73-2.46,8.09-7.45,10.42-15.08l1.36-4.47c-1.3-1.68-1.81-3.56-1.81-5.57,0-2.14.78-4.08,2.07-5.5-1.94,2.07-3.56,5.11-4.86,9.39l-1.49,4.92c-2.66,8.68-6.86,12.82-13.4,12.82-7.19,0-11.72-4.98-11.72-12.37Z"/>
  </g>
</svg>