<?xml version="1.0" encoding="UTF-8"?>
<svg id="Layer_1" data-name="Layer 1" xmlns="http://www.w3.org/2000/svg" viewBox="0 0 190 150">
  <defs>
    <style>
      .cls-1 {
        font-family: Aileron-Black, Aileron;
        font-size: 62.29px;
        font-weight: 800;
      }
    </style>
  </defs>
  <text class="cls-1" transform="translate(39.53 73.51)"><tspan x="0" y="0">UID</tspan></text>
  <g>
    <path d="M49.79,90.97h2.94v12.55h-2.94v-12.55Z"/>
    <path d="M63.69,103.21c.33.48.49,1.04.49,1.68,0,.74-.2,1.4-.61,1.96-.41.57-.98,1-1.72,1.31s-1.6.46-2.58.46-1.79-.16-2.51-.47c-.72-.31-1.27-.75-1.66-1.33-.39-.57-.58-1.24-.58-1.99,0-.19,0-.33.02-.43h2.71c-.02.59.14,1.04.49,1.36s.86.48,1.53.48c.6,0,1.08-.13,1.45-.4.37-.27.56-.63.56-1.07s-.17-.8-.51-1.05c-.34-.25-.83-.37-1.46-.37-.98,0-1.84-.19-2.57-.56-.74-.37-1.3-.89-1.7-1.57-.4-.68-.6-1.46-.6-2.36s.21-1.63.62-2.3c.41-.68.99-1.2,1.72-1.58s1.57-.56,2.52-.56c.73,0,1.4.14,2.01.43l1.04-1.29,2.06,1.49-1.18,1.38c.6.68.9,1.5.9,2.44,0,.66-.16,1.26-.48,1.82-.32.56-.76,1.01-1.34,1.37.6.28,1.06.65,1.39,1.14ZM60.8,100.41c.38-.38.57-.89.57-1.52s-.19-1.14-.56-1.52-.88-.56-1.52-.56-1.12.19-1.51.56c-.38.38-.57.88-.57,1.52s.19,1.13.57,1.51c.38.39.88.58,1.51.58s1.12-.19,1.51-.57Z"/>
    <path d="M74.04,95.55c.65.72.98,1.71.98,2.98v5h-2.82v-4.84c0-.57-.14-1.02-.43-1.34-.29-.32-.68-.48-1.18-.48-.55,0-.99.19-1.33.56-.33.37-.5.85-.5,1.45v4.66h-2.82v-8.86h2.44l.18,1.04c.35-.39.76-.7,1.25-.92.48-.21,1.02-.32,1.61-.32,1.1,0,1.98.36,2.63,1.08Z"/>
    <path d="M77.25,93.36c-.31-.29-.46-.65-.46-1.09s.16-.82.47-1.11c.31-.29.71-.43,1.18-.43s.87.14,1.18.43c.31.29.47.66.47,1.11s-.15.81-.46,1.09c-.31.29-.7.43-1.19.43s-.89-.14-1.19-.43ZM77.03,94.67h2.82v8.86h-2.82v-8.86Z"/>
    <path d="M88.31,103.19c-.69.35-1.48.52-2.35.52-.97,0-1.73-.27-2.29-.82-.56-.54-.84-1.42-.84-2.63v-3.35h-1.51v-2.24h1.51v-2.21l2.8-.31v2.51h2.21v2.24h-2.21v3.35c0,.36.09.62.27.8.18.17.42.26.74.26.35,0,.69-.08,1.02-.25l.66,2.12Z"/>
    <path d="M96.29,95.02c.7.36,1.25.88,1.62,1.54.38.66.56,1.44.56,2.32,0,.29-.03.64-.09,1.06h-6.51c.08.45.33.82.74,1.1.41.28.93.42,1.56.42.44,0,.87-.07,1.29-.2.42-.13.78-.32,1.08-.56l1.47,1.58c-.5.47-1.1.83-1.78,1.08-.69.25-1.42.38-2.2.38-1.03,0-1.92-.19-2.67-.56-.75-.38-1.33-.91-1.74-1.61-.41-.69-.61-1.51-.61-2.46s.2-1.72.6-2.42c.4-.71.96-1.25,1.68-1.64s1.55-.58,2.49-.58,1.81.18,2.51.55ZM92.49,97.13c-.35.29-.55.69-.6,1.2h3.91c-.04-.51-.22-.91-.56-1.2-.34-.29-.8-.43-1.37-.43s-1.02.14-1.37.43Z"/>
    <path d="M109.95,94.67h3.05l-5.52,12.7h-3l1.72-3.96-3.44-8.73h3.03l1.02,2.8.97,2.89,1.04-2.89,1.13-2.8Z"/>
    <path d="M115.54,103.14c-.73-.39-1.3-.93-1.69-1.62-.39-.69-.59-1.5-.59-2.42s.2-1.73.59-2.42.96-1.23,1.69-1.62c.74-.39,1.59-.58,2.57-.58s1.84.19,2.58.58,1.31.93,1.7,1.62c.39.69.59,1.5.59,2.42s-.2,1.73-.59,2.42c-.39.69-.96,1.23-1.7,1.62-.74.39-1.6.58-2.58.58s-1.84-.19-2.57-.58ZM119.62,100.71c.38-.42.57-.96.57-1.61s-.19-1.2-.57-1.61c-.38-.42-.88-.63-1.51-.63s-1.11.21-1.49.63c-.38.42-.57.96-.57,1.61s.19,1.2.57,1.61c.38.42.88.63,1.49.63s1.12-.21,1.51-.63Z"/>
    <path d="M133.5,94.67v8.86h-2.44l-.18-1.02c-.33.39-.74.7-1.23.91-.48.21-1.01.31-1.59.31-1.09,0-1.95-.36-2.6-1.08-.65-.72-.97-1.71-.97-2.98v-5h2.82v4.84c0,.57.14,1.02.42,1.34.28.32.67.48,1.16.48.54,0,.97-.19,1.3-.56.33-.38.49-.86.49-1.46v-4.65h2.82Z"/>
    <path d="M141.87,94.7c.41.15.76.37,1.06.65l-1.18,2.06c-.25-.16-.48-.27-.7-.34-.22-.07-.44-.11-.68-.11-.6,0-1.07.19-1.42.57-.35.38-.52.94-.52,1.69v4.3h-2.82v-8.86h2.46l.22,1.11c.57-.87,1.36-1.31,2.37-1.31.41,0,.81.08,1.22.22Z"/>
  </g>
  <g>
    <path d="M68.03,113.89l-1.88,8.89h-2.45l.04-1.06c-.93.83-2,1.24-3.21,1.24-.83,0-1.52-.19-2.08-.58-.56-.39-.94-.94-1.16-1.64-.21-.7-.22-1.5-.03-2.4s.54-1.7,1.05-2.4c.51-.7,1.12-1.25,1.85-1.64.72-.39,1.5-.58,2.33-.58.6,0,1.13.1,1.59.31s.83.51,1.1.91l.4-1.04h2.45ZM63.37,119.96c.48-.41.8-.96.94-1.63s.06-1.21-.25-1.63c-.31-.41-.77-.62-1.4-.62s-1.17.21-1.65.63c-.48.42-.79.96-.93,1.62s-.06,1.2.24,1.62c.3.42.76.63,1.39.63s1.18-.21,1.66-.62Z"/>
    <path d="M83.48,114.68c.51.66.64,1.56.4,2.72l-1.14,5.38h-2.82l1.06-5.02c.11-.53.07-.94-.11-1.23-.18-.29-.5-.44-.94-.44-.49,0-.92.17-1.28.5-.36.34-.6.78-.71,1.33l-1.03,4.86h-2.81l1.06-5.02c.11-.53.08-.94-.1-1.23-.18-.29-.49-.44-.93-.44-.49,0-.92.17-1.28.5-.37.34-.61.78-.72,1.33l-1.03,4.86h-2.82l1.88-8.89h2.45l-.05.99c.39-.38.83-.68,1.31-.88.48-.2.97-.31,1.48-.31.58,0,1.06.12,1.47.37s.69.58.87,1.02c.91-.92,2.03-1.38,3.35-1.38,1.13,0,1.94.33,2.45.99Z"/>
    <path d="M94.34,114.3c.57.39.95.94,1.17,1.64.21.7.22,1.5.03,2.4s-.54,1.7-1.05,2.4c-.51.7-1.13,1.25-1.86,1.64-.73.39-1.51.58-2.34.58-1.21,0-2.11-.41-2.69-1.24l-.4,1.06h-2.45l2.66-12.59h2.82l-.96,4.55c.89-.68,1.88-1.03,2.97-1.03.83,0,1.52.19,2.09.58ZM91.79,119.96c.48-.41.8-.96.94-1.63s.06-1.21-.25-1.63c-.31-.41-.77-.62-1.4-.62s-1.17.21-1.65.63c-.48.42-.79.96-.93,1.62s-.06,1.2.24,1.62c.3.42.76.63,1.39.63s1.18-.21,1.66-.62Z"/>
    <path d="M98.58,112.58c-.25-.29-.32-.65-.23-1.1s.33-.83.7-1.11c.37-.29.8-.43,1.28-.43s.85.14,1.1.43c.25.29.33.66.23,1.11s-.32.81-.69,1.1c-.37.29-.8.43-1.29.43s-.86-.14-1.1-.43ZM98.07,113.89h2.82l-1.88,8.89h-2.82l1.88-8.89Z"/>
    <path d="M107.58,122.44c-.77.35-1.59.52-2.47.52-.97,0-1.68-.27-2.13-.82-.45-.55-.54-1.42-.29-2.64l.71-3.36h-1.51l.48-2.25h1.51l.47-2.21,2.87-.31-.53,2.52h2.21l-.48,2.25h-2.21l-.71,3.36c-.08.36-.04.63.1.8.14.17.37.26.68.26.35,0,.71-.08,1.08-.25l.22,2.12Z"/>
    <path d="M111.15,112.58c-.25-.29-.32-.65-.23-1.1s.33-.83.7-1.11c.37-.29.8-.43,1.28-.43s.85.14,1.1.43c.25.29.33.66.23,1.11s-.32.81-.69,1.1c-.37.29-.8.43-1.29.43s-.86-.14-1.1-.43ZM110.65,113.89h2.82l-1.88,8.89h-2.82l1.88-8.89Z"/>
    <path d="M115.59,122.39c-.65-.39-1.11-.93-1.36-1.63-.25-.7-.28-1.5-.08-2.43s.56-1.73,1.11-2.43,1.22-1.24,2.04-1.63c.82-.39,1.72-.58,2.71-.58s1.81.2,2.47.58,1.12.93,1.37,1.63c.25.7.28,1.5.08,2.43s-.56,1.73-1.11,2.43c-.54.7-1.23,1.24-2.05,1.63-.83.39-1.73.58-2.71.58s-1.8-.19-2.46-.58ZM120.2,119.96c.47-.42.78-.96.92-1.62s.06-1.2-.23-1.62c-.29-.42-.75-.63-1.38-.63s-1.15.21-1.63.63c-.47.42-.78.96-.92,1.62s-.06,1.2.23,1.62c.29.42.75.63,1.36.63s1.17-.21,1.64-.63Z"/>
    <path d="M134.41,114.77c.5.72.62,1.71.35,2.99l-1.06,5.02h-2.82l1.03-4.86c.12-.58.07-1.02-.15-1.35-.22-.32-.58-.49-1.08-.49-.55,0-1.03.19-1.45.56-.41.37-.69.86-.81,1.46l-.99,4.68h-2.82l1.88-8.89h2.45l-.04,1.04c.43-.4.91-.7,1.44-.92.53-.22,1.09-.32,1.68-.32,1.1,0,1.91.36,2.41,1.08Z"/>
  </g>
</svg>